PathFileType	4	(X/Y/Z)	25_coords_data.trc
DataRate	CameraRate	NumFrames	NumMarkers	Units	OrigDataRate	OrigDataStartFrame	OrigNumFrames
30.0	30.0	7	21	m	30.0	31	80
Frame#	Time	THUMB_TIP	THUMB_IP	THUMB_MCP	THUMB_CMC	INDEX_TIP	INDEX_DIP	INDEX_PIP	INDEX_MCP	MIDDLE_TIP	MIDDLE_DIP	MIDDLE_PIP	MIDDLE_MCP	RING_TIP	RING_DIP	RING_PIP	RING_MCP	PINKY_TIP	PINKY_DIP	PINKY_PIP	PINKY_MCP	WRIST
X1	Y1	Z1	X2	Y2	Z2	X3	Y3	Z3	X4	Y4	Z4	X5	Y5	Z5	X6	Y6	Z6	X7	Y7	Z7	X8	Y8	Z8	X9	Y9	Z9	X10	Y10	Z10	X11	Y11	Z11	X12	Y12	Z12	X13	Y13	Z13	X14	Y14	Z14	X15	Y15	Z15	X16	Y16	Z16	X17	Y17	Z17	X18	Y18	Z18	X19	Y19	Z19	X20	Y20	Z20	X21	Y21	Z21
29	0.9999999999999956	0.5294332309483214	-0.008919652087476249	-0.15249430209934045	0.5116673840052063	-0.012516030787040888	-0.1383719530510013	0.4879841025489803	-0.019046202856939254	-0.11925967866508119	0.4762689108252094	-0.02610147440923538	-0.07679949229951455	0.5706114667763049	0.013936601677744243	-0.15942887293171926	0.5556564747035587	0.01896332866918815	-0.15053616649005663	0.5353178955805794	0.025819314745726407	-0.13744618989815155	0.5010135568835843	0.021604158301426812	-0.11256485358532603	0.5869915522532009	0.013760195281241838	-0.14056759562525956	0.5728784826405093	0.02153977690965725	-0.1323032519856145	0.5502443160233575	0.03202633301862334	-0.11723221378247395	0.5129742275085477	0.02555090851974584	-0.09345917652053409	0.59084681422286	0.010967616298173888	-0.12213271484025873	0.5775228179634296	0.01818474605520115	-0.11236623329627782	0.5583654071707741	0.026497444119147673	-0.09879889598864433	0.523996731074375	0.020705114702518124	-0.07830587626703989	0.5895024211809916	0.006456054237197306	-0.10650926932029603	0.5763296913673592	0.008401015470113071	-0.0957530471647483	0.5592218030674978	0.010194449204673384	-0.08371495045641397	0.5285853499906996	0.00685472299101797	-0.06497628927982607	0.4622830810018609	-0.023011742144276925	-0.05198982011943104
30	1.0333333333333288	0.5290267417881129	-0.00867375779745283	-0.15283551248469152	0.5113929197138959	-0.012336928875917641	-0.1385656317316945	0.48788000531211373	-0.018973720085923573	-0.11928051159286063	0.4762351788401705	-0.026119919440305228	-0.0768161753655538	0.5706166830818202	0.014012489921223614	-0.15949871057412413	0.5556437951815352	0.018951169522479994	-0.15058680439633965	0.5353059797570661	0.02577042120647499	-0.1374764686557663	0.5010023923592299	0.021579745474166634	-0.11258996181881403	0.5870421871330473	0.013807933233112246	-0.14067455215771701	0.5729037777070354	0.02152151194431906	-0.13239167328811652	0.5502390619605652	0.03190445511416129	-0.11729482920521189	0.5129721275477664	0.025526266683284393	-0.093490580995861	0.5909022752739355	0.01100716647707578	-0.12225305637636558	0.5775321725482598	0.01811967110929824	-0.11247284007193276	0.5583454920252797	0.026371029286753278	-0.09890942023265742	0.5240197777222497	0.020663564708804927	-0.07832080639689287	0.5895766308913101	0.006520328133856279	-0.10641691456345909	0.5763746325879093	0.008436665628364759	-0.09569148257196602	0.559231970664956	0.010179714585874078	-0.0836955273566839	0.5286013874711525	0.006831015102469085	-0.06494887336250876	0.462283081001861	-0.023011742144276925	-0.051989820119430985
31	1.0666666666666622	0.5284418216485403	-0.008293995471763904	-0.15332240653594853	0.5110064267925111	-0.012050620283527769	-0.13883466080937013	0.48772163193535767	-0.01880328074724058	-0.1193144173395233	0.4762085299060439	-0.0260792005687962	-0.07683619383131968	0.5706060377318247	0.014082351745704935	-0.15958125584960836	0.5556253384723411	0.018928749013613633	-0.15063189368135782	0.5352958253748076	0.025719676458222707	-0.13749400820997132	0.5010004887830459	0.021585946795924293	-0.11258661450575541	0.587090987179119	0.013888116700355724	-0.1407984665062727	0.5729234511424468	0.02152458136650981	-0.1324939297911889	0.5502225687666856	0.03178457629460529	-0.11736739702795079	0.5129729981104665	0.025510042380220144	-0.09350848609126772	0.5909601533353923	0.011177292969166364	-0.12241175418228234	0.5775277268260182	0.018144940725040914	-0.11261268265379953	0.5583029432831419	0.02629750529411079	-0.09904347605662883	0.5240361945828118	0.020624260778064674	-0.07834746039733848	0.5896695948401844	0.006669616902029607	-0.10629424584611263	0.5764225893987933	0.008518201511846346	-0.0956125052680934	0.5592460157308423	0.010244991541691117	-0.08366279681046651	0.5286069617649093	0.006820904641917758	-0.06494362343193699	0.4622830810018608	-0.023011742144276925	-0.051989820119430985
32	1.0999999999999952	0.5277919674699292	-0.00793977965601289	-0.15384382546955327	0.5105820368323636	-0.011792553372609427	-0.1391137738016573	0.48753983304620263	-0.018667456914783997	-0.11934985349310456	0.4761688019363832	-0.02608447813660353	-0.07685776660984361	0.5705589012381532	0.014033859063171561	-0.15969326858914729	0.5555731170766731	0.01880862131143879	-0.1507139635749462	0.5352532304818152	0.025601093229015937	-0.13756199159272864	0.5009689983742679	0.021562927042812263	-0.11262365290210152	0.587138851064967	0.01398414619016608	-0.14097716414633632	0.5729328868232182	0.021512672086487328	-0.13263978579396596	0.5501999208569188	0.031645697038000575	-0.11747589402083969	0.5129744042700174	0.02546976346417762	-0.09355379795193197	0.5910203221136086	0.011349306457341002	-0.12258073891246274	0.5775214767553851	0.018170155700628077	-0.1127696640684348	0.5582523966134818	0.026221879762281408	-0.09920307757367097	0.5240522779636723	0.020575924047348315	-0.07838971882492607	0.5897917941395552	0.006850653486439762	-0.1061482369689915	0.5764934307846654	0.008614745049261852	-0.09551613872643816	0.5592721841967476	0.010303571773224052	-0.08362544702012614	0.5286207766424365	0.006790427776671715	-0.06494303590167005	0.4622830810018608	-0.023011742144276925	-0.051989820119430985
33	1.1333333333333284	0.5269469306118809	-0.007440986784055137	-0.15449902761228168	0.5100351450566227	-0.011424562347743694	-0.13946165300561109	0.487297451111147	-0.018446406184085884	-0.1193989766343016	0.47611973890212944	-0.026052503930960258	-0.07688902454261631	0.5704877749581352	0.014135553080877439	-0.1598689109923448	0.5554912141953362	0.01877529912207776	-0.15083697200003265	0.5351779916425976	0.025509373196018648	-0.13764473682590128	0.5009216800419648	0.021563645280532673	-0.11265328947411107	0.5871698006045376	0.014167264006046731	-0.14122267225988994	0.5729186805833953	0.02154713208642023	-0.1328296319728851	0.5501388146148857	0.03150598639699442	-0.11762080304763611	0.5129491176560592	0.0254446915240909	-0.09361382352970476	0.5910889337315254	0.011684773760580414	-0.12283284782052534	0.5775037410447971	0.018298359217038818	-0.11299907809195286	0.5581750729276496	0.026167528119447447	-0.09941015802439301	0.5240530887993115	0.020527689710831187	-0.0784673011068151	0.5899011793010899	0.007144584090843509	-0.10605061531897009	0.5765422704567729	0.008775133968261684	-0.09547324033334742	0.5592722525063994	0.01038048270307812	-0.08364186871238122	0.5286159887591476	0.006783516719028326	-0.06498339128874009	0.4622830810018608	-0.023011742144276925	-0.05198982011943093
34	1.1666666666666616	0.5258237227255912	-0.006872771581213799	-0.15532448240949814	0.5092997232901593	-0.01102503419616685	-0.13990643591085544	0.48693304522698466	-0.01820361923309466	-0.11948537743471621	0.4760039321782147	-0.026046310633951797	-0.07695378118489121	0.5703824709156935	0.014349771622893637	-0.1601604162604604	0.5553780716751198	0.01880547385083242	-0.1510491747926136	0.5350732320361353	0.025406103138352565	-0.13777683463558538	0.500859971923665	0.02153281038545085	-0.11271518006676723	0.5871837206198142	0.014354411782899867	-0.14155540375932546	0.5728850098835827	0.02155414215403717	-0.13308718352928267	0.5500673070109796	0.0313440473497415	-0.1178254751754737	0.5129322228991847	0.025379659637319807	-0.0937099298110034	0.591182743404759	0.012068218941505338	-0.12315019476116829	0.5775104453627735	0.01845249033331464	-0.11328564484508769	0.5581126915755578	0.026071843282787444	-0.09965286861858419	0.5240723736000645	0.0204332534906142	-0.07857719801755919	0.5900521827972898	0.007425164557779862	-0.1059635180899135	0.5766271302818253	0.008914673996915368	-0.09544927410436022	0.5593043319614057	0.010383465006486015	-0.0836774717648594	0.5286360642694259	0.006707804328443867	-0.06505409059083617	0.4622830810018608	-0.023011742144276925	-0.05198982011943093
35	1.1999999999999948	0.5246874004270969	-0.006243645763048256	-0.15613840047167232	0.5085767774370397	-0.010568358275149903	-0.1403350878898143	0.4865885498992356	-0.01790552258924849	-0.1195624166707902	0.4758892356777269	-0.02600801753786275	-0.07702109263407153	0.5702833051149675	0.014605765258233427	-0.16044171225229348	0.5552757325511528	0.018875081202356148	-0.1512468382938808	0.5349721787873061	0.025317633023855923	-0.1378950944532481	0.5008045897274673	0.021520092897603593	-0.11275964854855997	0.5871930277602502	0.01454552684163668	-0.1418974001783153	0.5728399664109891	0.021535542890881332	-0.13334583274680623	0.549991491423547	0.031166266268379816	-0.11802898228810083	0.5129164515091774	0.025326237551270503	-0.09379092541608158	0.5912354896263441	0.012376135261466303	-0.12345987538740305	0.5774957656881015	0.018577084255944065	-0.11357209415657232	0.5580446140726554	0.02599320578652109	-0.09990337727177878	0.5240916533626718	0.020335014736055257	-0.07869247990597306	0.5901802201624197	0.00770463128729626	-0.10595642559141955	0.5766916108775784	0.0090199588631521	-0.09550045442996902	0.5593247208563267	0.01033592578834297	-0.08377563541040406	0.5286572005278031	0.006613580989235146	-0.06516029772622128	0.462283081001861	-0.023011742144276925	-0.05198982011943093
